<?xml version="1.0" encoding="utf-8"?>
<!-- Generator: Adobe Illustrator 21.1.0, SVG Export Plug-In . SVG Version: 6.00 Build 0)  -->
<svg version="1.1" id="Camada_1" xmlns="http://www.w3.org/2000/svg" xmlns:xlink="http://www.w3.org/1999/xlink" x="0px" y="0px"
	 viewBox="0 0 1198 455.7" style="enable-background:new 0 0 1198 455.7;" xml:space="preserve">
<style type="text/css">
	.st0{fill:#1A4FA6;}
	.st1{fill:#EFFF00;}
</style>
<g>
	<g>
		<rect class="st0" width="1198" height="455.7"/>
	</g>
	<g>
		<path class="st1" d="M389.8,99.7L352,214.1l41.4,139h-68.1l-26.7-108.7v108.7h-65.9V99.7h65.9v98.5L328,99.7H389.8z"/>
		<path class="st1" d="M404.8,99.7h46.7c31.1,0,52.2,1.2,63.2,3.6c11,2.4,20,8.5,26.9,18.4c6.9,9.9,10.4,25.6,10.4,47.2
			c0,19.7-2.5,33-7.4,39.8c-4.9,6.8-14.6,10.9-29,12.2c13,3.2,21.8,7.6,26.3,13c4.5,5.4,7.3,10.4,8.4,15s1.6,17,1.6,37.5v66.9h-61.2
			v-84.2c0-13.6-1.1-22-3.2-25.2c-2.1-3.2-7.8-4.9-16.8-4.9v114.3h-65.9V99.7z M470.7,143v56.4c7.4,0,12.6-1,15.6-3.1
			c3-2,4.5-8.6,4.5-19.8v-13.9c0-8-1.4-13.3-4.3-15.8C483.6,144.3,478.3,143,470.7,143z"/>
		<path class="st1" d="M643.4,99.7v253.5h-65.9V99.7H643.4z"/>
		<path class="st1" d="M802.6,99.7v50.7h-39.1v202.8h-65.9V150.4h-39V99.7H802.6z"/>
		<path class="st1" d="M974.8,99.7L937,214.1l41.4,139h-68.1l-26.7-108.7v108.7h-65.9V99.7h65.9v98.5l29.4-98.5H974.8z"/>
	</g>
</g>
</svg>
